<?xml version="1.0" encoding="UTF-8" standalone="no"?>
<!-- Created with Inkscape (http://www.inkscape.org/) -->

<svg
   xmlns:dc="http://purl.org/dc/elements/1.1/"
   xmlns:cc="http://creativecommons.org/ns#"
   xmlns:rdf="http://www.w3.org/1999/02/22-rdf-syntax-ns#"
   xmlns:svg="http://www.w3.org/2000/svg"
   xmlns="http://www.w3.org/2000/svg"
   xmlns:sodipodi="http://sodipodi.sourceforge.net/DTD/sodipodi-0.dtd"
   xmlns:inkscape="http://www.inkscape.org/namespaces/inkscape"
   width="300"
   height="300"
   id="svg2"
   version="1.1"
   inkscape:version="0.48+devel r"
   viewBox="0 0 299.99999 300.00001"
   sodipodi:docname="logo.svg"
   inkscape:export-filename="/home/turbo/Code/welt2000/img/logo.png"
   inkscape:export-xdpi="150"
   inkscape:export-ydpi="150">
  <defs
     id="defs4">
    <mask
       maskUnits="userSpaceOnUse"
       id="mask4108" />
  </defs>
  <sodipodi:namedview
     id="base"
     pagecolor="#ffffff"
     bordercolor="#666666"
     borderopacity="1.0"
     inkscape:pageopacity="1"
     inkscape:pageshadow="2"
     inkscape:zoom="1"
     inkscape:cx="-117.57747"
     inkscape:cy="67.314609"
     inkscape:document-units="px"
     inkscape:current-layer="layer3"
     showgrid="false"
     inkscape:snap-bbox="true"
     inkscape:snap-smooth-nodes="true"
     inkscape:snap-midpoints="true"
     inkscape:object-nodes="true"
     inkscape:object-paths="true"
     inkscape:snap-global="false"
     fit-margin-top="30"
     fit-margin-left="30"
     fit-margin-right="30"
     fit-margin-bottom="30" />
  <metadata
     id="metadata7">
    <rdf:RDF>
      <cc:Work
         rdf:about="">
        <dc:format>image/svg+xml</dc:format>
        <dc:type
           rdf:resource="http://purl.org/dc/dcmitype/StillImage" />
        <dc:title />
      </cc:Work>
    </rdf:RDF>
  </metadata>
  <g
     inkscape:groupmode="layer"
     id="layer3"
     inkscape:label="Marker"
     transform="translate(-148.57227,-230.8789)">
    <path
       style="color:#000000;color-interpolation:sRGB;color-interpolation-filters:linearRGB;fill:#aacc33;fill-opacity:1;fill-rule:nonzero;stroke:none;stroke-width:2;marker:none;visibility:visible;display:inline;overflow:visible;enable-background:accumulate;clip-rule:nonzero"
       d="m 298.57226,260.90625 c -26.17994,0 -52.19867,10.77731 -70.71068,29.28932 -18.51201,18.51201 -29.28932,44.53074 -29.28932,70.71068 0.024,15.33541 2.44956,31.31146 10.46716,44.38409 22.54287,36.75596 55.95146,64.79334 89.52502,95.56123 34.53483,-31.15564 72.87188,-62.63722 89.48434,-95.40682 6.95941,-13.72805 10.50573,-29.14719 10.52349,-44.5385 0,-26.17994 -10.77731,-52.19867 -29.28932,-70.71068 -18.51201,-18.51201 -44.53074,-29.28932 -70.71068,-29.28932 z"
       id="path4064"
       inkscape:connector-curvature="0"
       sodipodi:nodetypes="sscscscss" />
  </g>
  <g
     inkscape:groupmode="layer"
     id="layer4"
     inkscape:label="Earth"
     style="display:inline"
     transform="translate(-148.57227,-230.8789)">
    <path
       style="fill:#ffffff;display:inline"
       d="m 286.9767,438.99999 c -17.18487,-2.82698 -30.76276,-9.5999 -43.34593,-21.6218 -10.7424,-10.26323 -18.26138,-23.06693 -22.04464,-37.53877 -2.63706,-10.08738 -2.58707,-28.41281 0.10496,-38.4717 3.89422,-14.55093 11.03055,-26.76609 21.67898,-37.10767 10.34015,-10.04216 21.56248,-16.40848 35.6151,-20.20411 10.13881,-2.7385 28.31153,-2.73946 38.69746,-0.002 28.01642,7.38434 49.72805,29.10163 57.29883,57.31379 1.54898,5.77216 1.92756,9.42022 1.96433,18.9279 0.0474,12.23728 -0.61793,16.44362 -4.22015,26.68314 -4.15784,11.81892 -8.53584,18.81696 -17.91086,28.62969 -10.13796,10.61129 -22.69257,17.94538 -37.13259,21.69199 -7.85546,2.03817 -23.41262,2.89927 -30.70549,1.69956 z m 10.2965,-10.77278 c 0.37468,-0.80972 0.62772,-3.17574 0.56229,-5.25787 -0.0654,-2.08211 0.36326,-4.73981 0.95261,-5.906 0.58935,-1.16618 1.34034,-5.5561 1.66884,-9.75537 l 0.59728,-7.63502 -3.04279,-1.88056 c -1.67353,-1.03429 -3.04279,-2.36468 -3.04279,-2.95641 0,-0.59174 -0.94861,-2.47373 -2.108,-4.18221 -2.24624,-3.30999 -2.20538,-5.8061 0.15695,-9.58677 1.72565,-2.76177 1.1541,-5.69217 -1.05154,-5.39132 -0.9905,0.13505 -2.80338,-0.75848 -4.20629,-2.0733 -3.001,-2.81254 -7.68263,-5.30828 -10.00445,-5.33329 -2.83384,-0.0306 -8.86566,-3.15786 -8.86566,-4.5966 0,-1.28467 -7.67199,-11.54859 -8.2215,-10.99906 -0.14857,0.14855 0.92481,2.04058 2.38526,4.20455 1.46046,2.16398 2.48747,4.1024 2.28226,4.30761 -0.6245,0.6245 -4.3852,-4.056 -5.99439,-7.46053 -0.83332,-1.76304 -2.0705,-3.41865 -2.74928,-3.6791 -2.2333,-0.85701 -4.52751,-6.67226 -4.52751,-11.47612 0,-3.27315 -0.47136,-5.1462 -1.68252,-6.68594 -0.92539,-1.17644 -1.68252,-2.69541 -1.68252,-3.37548 0,-0.68009 -0.56786,-1.70778 -1.26189,-2.28378 -0.69404,-0.57599 -1.2619,-1.56877 -1.2619,-2.20616 0,-0.63738 -0.54008,-1.15888 -1.20019,-1.15888 -0.66012,0 -1.34203,-0.66248 -1.51538,-1.47219 -0.22449,-1.04851 -1.20794,-0.0961 -3.41722,3.30975 -7.97266,12.29038 -11.70262,28.73225 -9.8935,43.61132 2.44749,20.12927 13.54525,38.38455 29.88965,49.16698 11.51844,7.5987 20.02072,10.4983 35.53099,12.1173 0.56208,0.0587 1.32853,-0.55584 1.70319,-1.36555 z M 244.14229,325.49629 c -0.36238,-0.58635 -0.43169,-1.2933 -0.15404,-1.57098 0.75291,-0.75288 1.57379,0.35443 1.16715,1.57437 -0.28494,0.85487 -0.48311,0.8542 -1.01311,-0.003 z m 71.08075,101.71962 c 19.3907,-5.0789 35.24094,-17.70419 44.08706,-35.11696 2.19006,-4.31092 5.30281,-12.40532 5.47389,-14.23428 0.006,-0.0535 -1.59981,0.20062 -3.56625,0.56481 -3.04172,0.56332 -3.88058,0.38949 -5.62048,-1.16454 -5.28685,-4.72212 -5.89262,-5.84262 -5.92025,-10.95066 -0.0274,-5.05526 1.66801,-8.7495 5.19686,-11.32424 0.82865,-0.60459 1.50663,-1.75082 1.50663,-2.54712 0,-0.79634 0.77325,-2.10994 1.71831,-2.91912 1.75534,-1.50297 1.56362,-3.10897 -0.37114,-3.10897 -0.73495,0 -1.05335,-1.26987 -1.00192,-3.99597 l 0.0754,-3.99597 3.15471,0.2761 c 1.73509,0.15182 3.15472,-0.0849 3.15472,-0.52627 0,-0.44129 -0.94164,-2.93158 -2.09253,-5.53397 -1.46057,-3.30259 -2.56521,-4.73159 -3.65763,-4.73159 -1.1652,0 -1.5836,-0.65043 -1.63748,-2.54557 -0.1284,-4.51864 -8.79323,-14.52109 -18.11634,-20.91317 -3.69255,-2.53168 -4.27078,-2.68741 -6.51976,-1.75585 -1.35732,0.56223 -2.46784,1.64919 -2.46784,2.41549 0,0.76629 -0.52303,2.13999 -1.16229,3.05265 -1.27086,1.81443 -1.36149,2.12086 -1.36149,4.6038 0,0.93472 -0.56085,1.68251 -1.26189,1.68251 -0.69404,0 -1.26187,-0.37856 -1.26187,-0.84125 0,-0.46269 -0.53047,-0.84126 -1.17881,-0.84126 -2.65434,0 -6.9209,-10.71955 -6.15211,-15.45695 l 0.47677,-2.93794 -4.18566,-0.89765 c -5.89642,-1.26456 -8.04207,-1.12454 -8.69124,0.56717 -0.53713,1.39973 1.10567,3.33292 4.39798,5.17539 1.01191,0.56629 1.0416,1.03225 0.17207,2.70057 -1.50178,2.88143 -1.45516,2.87215 -3.32732,0.66316 -1.4679,-1.73202 -1.62864,-1.77786 -1.15505,-0.32948 0.30257,0.92539 1.09755,2.32114 1.76659,3.10171 1.43367,1.67264 0.60422,3.53888 -1.25562,2.82518 -1.07484,-0.41245 -1.11449,-0.27877 -0.23253,0.78392 2.01744,2.43088 -1.42321,1.44338 -4.55661,-1.30778 -1.62173,-1.42389 -3.33845,-2.34797 -3.81492,-2.05348 -0.47649,0.29447 -1.26327,0.29007 -1.74846,-0.01 -1.29054,-0.79762 0.70687,-2.93361 2.20551,-2.35852 0.79887,0.30655 1.2004,-0.11575 1.2004,-1.26223 0,-0.9476 0.37855,-1.95685 0.84124,-2.2428 0.4627,-0.28598 0.84126,-0.87615 0.84126,-1.31154 0,-0.94351 -1.87706,-0.68206 -2.64004,0.36774 -0.29527,0.40629 -0.97615,0.46724 -1.51305,0.1354 -0.74055,-0.45768 -0.74025,-0.88755 8.6e-4,-1.78104 0.53757,-0.64774 1.35236,-0.946 1.81061,-0.66278 0.45827,0.28322 0.18256,-0.47808 -0.61269,-1.69178 -1.5381,-2.34743 -2.22744,-2.80872 -1.88334,-1.2603 0.11574,0.52053 -0.26314,1.12001 -0.84183,1.33218 -0.62297,0.22841 -0.87188,-0.0839 -0.61023,-0.76583 0.26796,-0.6983 -0.16463,-1.1973 -1.09909,-1.26769 -1.29994,-0.0979 -1.50425,0.43315 -1.30606,3.39476 0.26303,3.93016 -1.74926,7.77229 -3.00582,5.73914 -0.50574,-0.81829 -0.94713,-0.41242 -1.60555,1.4763 -0.49943,1.43266 -1.25482,2.60485 -1.67866,2.60485 -0.42383,0 -1.76851,1.43999 -2.98816,3.19994 -2.21992,3.20397 -2.9567,6.89517 -1.37589,6.89517 0.46269,0 0.84126,0.77373 0.84126,1.71938 0,0.94568 0.4732,1.61797 1.05157,1.49399 0.57837,-0.12395 2.63396,0.52194 4.56801,1.43534 3.08405,1.45651 4.37579,3.02208 4.78298,5.7969 0.0622,0.42414 0.64385,0.94806 1.29244,1.16426 0.90733,0.30243 1.06106,-0.19798 0.66666,-2.16999 -0.34659,-1.7329 -0.11541,-2.89269 0.71355,-3.58071 1.29641,-1.07592 1.63284,-3.48958 0.62665,-4.49578 -0.32975,-0.32975 -0.61368,-2.28538 -0.63096,-4.34583 -0.0288,-3.45068 0.13456,-3.74413 2.07174,-3.71898 2.67506,0.0347 5.88883,2.68346 5.88883,4.85342 0,2.38839 2.30405,2.98917 3.42576,0.89325 0.89348,-1.66947 0.96726,-1.67607 2.00267,-0.17899 0.59125,0.8549 1.36499,2.50077 1.71945,3.6575 0.35446,1.15673 1.73045,3.08334 3.05773,4.28135 1.3273,1.19799 2.41326,2.59614 2.41326,3.10702 0,1.64628 -3.65241,3.54799 -6.81424,3.54799 -1.69118,0 -3.53181,0.55062 -4.09034,1.2236 -0.87292,1.0518 -0.62242,1.11087 1.78427,0.42064 3.51516,-1.00816 4.0479,-0.98232 2.17993,0.10562 -0.80971,0.47162 -1.4722,1.36237 -1.4722,1.97946 0,1.42816 3.15302,2.30115 3.67892,1.01858 0.217,-0.52925 0.42442,-0.32751 0.46094,0.44831 0.0366,0.77583 -1.06928,1.97716 -2.45736,2.66962 -2.18233,1.0887 -2.52376,1.09441 -2.52376,0.0422 0,-1.01217 -0.36078,-0.98041 -2.14541,0.18893 -1.17996,0.77313 -1.96231,1.88284 -1.73852,2.46601 0.22952,0.59811 -0.42261,1.26849 -1.49603,1.5379 -1.81005,0.45431 -3.8739,3.58027 -3.8739,5.8675 0,0.58526 -1.16385,1.92458 -2.58635,2.97629 -1.62999,1.20509 -2.40634,2.38127 -2.09955,3.18076 0.26773,0.69773 0.71549,2.17984 0.99504,3.29358 0.73911,2.94489 -1.25595,2.56499 -2.30299,-0.43854 -0.8476,-2.43143 -0.92612,-2.45819 -6.02847,-2.05394 -6.18557,0.49011 -7.32661,1.2838 -7.32661,5.09641 0,5.63294 2.78496,7.83038 5.66339,4.46862 2.36248,-2.75921 3.86938,-2.17127 3.22594,1.25861 -0.50625,2.69852 -0.39338,2.92406 1.36844,2.73408 1.60488,-0.17303 1.99097,0.27494 2.35098,2.72782 0.55913,3.80949 3.32561,4.70395 3.47275,1.1228 0.0695,-1.68986 0.205,-1.8897 0.46988,-0.69262 0.85744,3.87505 1.01387,3.94825 3.84142,1.79815 2.55404,-1.94213 2.9312,-2.00494 5.50745,-0.9173 1.61474,0.68171 3.85721,0.94931 5.38867,0.64301 1.69174,-0.33835 2.43428,-0.21922 2.09143,0.33552 -0.77214,1.24937 2.43708,3.84878 5.10253,4.13297 2.24858,0.23972 4.42129,2.25536 4.42129,4.10164 0,0.9305 5.58074,3.78678 7.39881,3.78678 1.6127,0 6.86007,2.89798 6.8819,3.80069 0.012,0.47095 -0.92573,2.24906 -2.08246,3.95133 -1.15673,1.70229 -2.10314,3.69515 -2.10314,4.4286 0,0.73346 -0.53274,2.60858 -1.18386,4.16695 -0.87397,2.09167 -1.87988,2.98627 -3.84252,3.41735 -1.46224,0.32116 -2.85783,1.21072 -3.10128,1.9768 -2.02612,6.37567 -5.28683,10.5136 -7.58873,9.6303 -1.08765,-0.41737 -1.27092,-0.19891 -0.81969,0.977 0.7131,1.85827 -0.78619,3.82507 -2.91587,3.82507 -0.86873,0 -1.5795,0.56785 -1.5795,1.2619 0,0.69403 -0.56785,1.26188 -1.2619,1.26188 -0.69403,0 -1.26188,0.37857 -1.26188,0.84126 0,0.46269 0.4056,0.84125 0.90135,0.84125 0.49573,0 0.30644,0.59489 -0.42064,1.32199 -0.72709,0.72707 -1.32197,1.4842 -1.32197,1.6825 0,0.80393 4.23797,0.26923 10.15928,-1.28169 z m -21.09565,-61.45212 c 0,-0.46269 0.16703,-0.84127 0.37097,-0.84127 0.20404,0 0.60495,0.37858 0.89092,0.84127 0.28595,0.46268 0.11899,0.84126 -0.371,0.84126 -0.48999,0 -0.89089,-0.37858 -0.89089,-0.84126 z m 4.41135,0.21185 c -0.58124,-0.19555 -0.84282,-0.7018 -0.58128,-1.12496 0.60851,-0.98458 3.49862,-1.00135 4.10277,-0.0237 0.53252,0.86161 -1.95909,1.67442 -3.52149,1.14875 z m -4.87404,-2.6709 c -0.43956,-0.42709 -1.93491,-0.92288 -3.32299,-1.10173 -2.12973,-0.27446 -2.28029,-0.43518 -0.96431,-1.0295 1.0521,-0.47512 2.69425,-0.13368 5.04755,1.04957 2.47314,1.24349 2.98629,1.76899 1.76353,1.80601 -0.94853,0.0287 -2.08422,-0.29726 -2.52378,-0.72435 z m 20.02194,-29.34458 c -3.14931,-0.31192 -3.46499,-1.62422 -1.07955,-4.4876 1.38799,-1.66611 1.65904,-1.74887 1.68251,-0.51383 0.0154,0.80972 0.38104,1.4722 0.81255,1.4722 0.74594,0 2.20903,3.32212 1.60571,3.64594 -0.15797,0.0848 -1.51747,0.0322 -3.02122,-0.11677 z m -26.83187,-26.28099 c -0.48956,-0.48955 -0.71469,-1.80768 -0.50031,-2.92917 0.34205,-1.78919 0.61022,-1.92309 2.18854,-1.09263 1.89551,0.99737 3.02624,2.30763 3.04773,3.53165 0.007,0.40367 -0.52441,0.28805 -1.18111,-0.25696 -0.93549,-0.77641 -1.35316,-0.70645 -1.92936,0.32315 -0.51716,0.92411 -0.99952,1.04992 -1.62549,0.42396 z m 78.65984,38.31504 c 0.31529,-1.68252 0.31529,-1.68252 -1.55333,0 -1.02774,0.92538 -2.0497,1.55633 -2.27103,1.4021 -0.22133,-0.1542 -0.65478,-0.0264 -0.96325,0.28444 -0.30845,0.3107 0.57163,0.43688 1.95574,0.28043 1.72121,-0.19454 2.61624,-0.81622 2.83187,-1.96697 z"
       id="path4198"
       inkscape:connector-curvature="0"
       sodipodi:nodetypes="cssssscssssscccccscsssscscscssscssscsssssscccccccscssssssssccssscssssssssscssssscscssccsscssccssccscsssscsscscsccsssssssssssssssccsssssscsssssscscsssssssscssscsscssssscsccsssssccccccscssccssscccscsccssssccss" />
  </g>
  <g
     inkscape:groupmode="layer"
     id="layer2"
     inkscape:label="Shadow"
     transform="translate(-148.57227,-230.8789)">
    <path
       style="color:#000000;color-interpolation:sRGB;color-interpolation-filters:linearRGB;fill:#000000;fill-opacity:0.09411765;fill-rule:nonzero;stroke:none;stroke-width:12;marker:none;visibility:visible;display:inline;overflow:visible;enable-background:accumulate;clip-rule:nonzero"
       d="m 298.57226,271.14648 0,215.85743 c 0.0137,0.0125 0.0273,0.0246 0.041,0.0371 32.72331,-29.32963 66.35169,-58.70688 80.30273,-86.22657 6.1946,-12.21943 9.39918,-26.08967 9.41602,-39.91406 -0.002,-23.36788 -9.76562,-46.94139 -26.28907,-63.46484 -16.52482,-16.52482 -40.10089,-26.28906 -63.47068,-26.28906 z"
       id="rect4088"
       inkscape:connector-curvature="0" />
  </g>
</svg>
